<?xml version="1.0" encoding="UTF-8" standalone="no"?><svg xmlns="http://www.w3.org/2000/svg" xmlns:xlink="http://www.w3.org/1999/xlink" contentScriptType="application/ecmascript" contentStyleType="text/css" height="313px" preserveAspectRatio="none" style="width:199px;height:313px;background:#FFFFFF;" version="1.1" viewBox="0 0 199 313" width="199px" zoomAndPan="magnify"><defs><filter height="300%" id="fq0vz8graid0j" width="300%" x="-1" y="-1"><feGaussianBlur result="blurOut" stdDeviation="2.0"/><feColorMatrix in="blurOut" result="blurOut2" type="matrix" values="0 0 0 0 0 0 0 0 0 0 0 0 0 0 0 0 0 0 .4 0"/><feOffset dx="4.0" dy="4.0" in="blurOut2" result="blurOut3"/><feBlend in="SourceGraphic" in2="blurOut3" mode="normal"/></filter></defs><g><!--MD5=[0a9ac0d196cad6ccfe4cdeeb7405401c]
entity Gitee--><rect fill="#FEFECE" filter="url(#fq0vz8graid0j)" height="46.2969" style="stroke:#A80036;stroke-width:1.5;" width="80" x="56" y="7"/><rect fill="#FEFECE" height="10" style="stroke:#A80036;stroke-width:1.5;" width="15" x="116" y="12"/><rect fill="#FEFECE" height="2" style="stroke:#A80036;stroke-width:1.5;" width="4" x="114" y="14"/><rect fill="#FEFECE" height="2" style="stroke:#A80036;stroke-width:1.5;" width="4" x="114" y="18"/><text fill="#000000" font-family="sans-serif" font-size="14" lengthAdjust="spacing" textLength="40" x="71" y="39.9951">Gitee</text><!--MD5=[b8262ed2d8d5d5cbd1d495d0ef5720ab]
entity access--><rect fill="#FEFECE" filter="url(#fq0vz8graid0j)" height="46.2969" style="stroke:#A80036;stroke-width:1.5;" width="178" x="7" y="130"/><rect fill="#FEFECE" height="10" style="stroke:#A80036;stroke-width:1.5;" width="15" x="165" y="135"/><rect fill="#FEFECE" height="2" style="stroke:#A80036;stroke-width:1.5;" width="4" x="163" y="137"/><rect fill="#FEFECE" height="2" style="stroke:#A80036;stroke-width:1.5;" width="4" x="163" y="141"/><text fill="#000000" font-family="sans-serif" font-size="14" lengthAdjust="spacing" textLength="138" x="22" y="162.9951">robot-gitee-access</text><!--MD5=[09e621066b911ef43e76dcea1da03377]
entity robot--><rect fill="#FEFECE" filter="url(#fq0vz8graid0j)" height="46.2969" style="stroke:#A80036;stroke-width:1.5;" width="155" x="18.5" y="253"/><rect fill="#FEFECE" height="10" style="stroke:#A80036;stroke-width:1.5;" width="15" x="153.5" y="258"/><rect fill="#FEFECE" height="2" style="stroke:#A80036;stroke-width:1.5;" width="4" x="151.5" y="260"/><rect fill="#FEFECE" height="2" style="stroke:#A80036;stroke-width:1.5;" width="4" x="151.5" y="264"/><text fill="#000000" font-family="sans-serif" font-size="14" lengthAdjust="spacing" textLength="115" x="33.5" y="285.9951">robot-gitee-xxx</text><!--MD5=[01cc8eb0c04f64e0cf364c75dfa797b8]
link Gitee to access--><path d="M96,53.193 C96,73.405 96,103.307 96,124.919 " fill="none" id="Gitee-to-access" style="stroke:#A80036;stroke-width:1.0;"/><polygon fill="#A80036" points="96,129.947,100,120.947,96,124.947,92,120.947,96,129.947" style="stroke:#A80036;stroke-width:1.0;"/><text fill="#000000" font-family="sans-serif" font-size="13" lengthAdjust="spacing" textLength="26" x="97" y="96.0669">http</text><!--MD5=[4a9aeaa5773d6a6573f1b69da9789885]
link access to robot--><path d="M96,176.193 C96,196.405 96,226.3072 96,247.9188 " fill="none" id="access-to-robot" style="stroke:#A80036;stroke-width:1.0;"/><polygon fill="#A80036" points="96,252.9474,100,243.9474,96,247.9474,92,243.9474,96,252.9474" style="stroke:#A80036;stroke-width:1.0;"/><text fill="#000000" font-family="sans-serif" font-size="13" lengthAdjust="spacing" textLength="26" x="97" y="219.0669">http</text><!--MD5=[28cf6bd63cf3e8f8d364518b1bd62382]
@startuml
[Gitee]
[robot-gitee-access] as access
[robot-gitee-xxx] as robot

Gitee - -> access: http

access - -> robot: http
@enduml

PlantUML version 1.2021.16beta3(Unknown compile time)
(GPL source distribution)
Java Runtime: Java(TM) SE Runtime Environment
JVM: Java HotSpot(TM) 64-Bit Server VM
Default Encoding: UTF-8
Language: en
Country: US
--></g></svg>